# xmcd CD database file
#
# Track frame offsets:
#	150
#	12860
#	32090
#	48584
#	66604
#	76388
#	96062
#	115436
#	127661
#	144721
#	160409
#	179624
#
# Disc length: 2809 seconds
#
# Revision: 8
# Processed by: cddbd v1.5.2PL0 Copyright (c) Steve Scherf et al.
# Submitted via: CDex 1.77
#
DISCID=a70af70c
DTITLE=Gossip - Standing in the Way of Control
DYEAR=2007
DGENRE=Garage Rock,Indie Rock
TTITLE0=Fire with Fire
TTITLE1=Standing in the Way of Control
TTITLE2=Jealous Girls
TTITLE3=Coal to Diamonds
TTITLE4=Eyes Open
TTITLE5=Yr Mangled Heart
TTITLE6=Listen up!
TTITLE7=Holy Water
TTITLE8=Keeping you Alive
TTITLE9=Dark Lines
TTITLE10=Listen up! (2007 Version)
TTITLE11=Standing in the Way of Control (Soulwax Nite Version)
EXTD=Re-Release 2007 YEAR: 2007
EXTT0=
EXTT1=
EXTT2=
EXTT3=
EXTT4=
EXTT5=
EXTT6=
EXTT7=
EXTT8=
EXTT9=
EXTT10=
EXTT11=
PLAYORDER=
